<svg width="162" height="24" viewBox="0 0 162 24" fill="none" xmlns="http://www.w3.org/2000/svg">
<path d="M7.24666 23.436C6.16399 23.436 5.12799 23.2493 4.13866 22.876C3.16799 22.5027 2.37466 21.9333 1.75866 21.168C1.14266 20.4027 0.834656 19.4507 0.834656 18.312C0.834656 17.304 1.05866 16.52 1.50666 15.96C1.95466 15.3813 2.51466 14.98 3.18666 14.756C3.85866 14.532 4.51199 14.42 5.14666 14.42C4.54932 15.0547 4.09199 15.708 3.77466 16.38C3.47599 17.052 3.32666 17.696 3.32666 18.312C3.32666 18.9467 3.48532 19.544 3.80266 20.104C4.13866 20.6453 4.63332 21.084 5.28666 21.42C5.93999 21.7747 6.75199 21.952 7.72266 21.952C8.56266 21.952 9.37466 21.812 10.1587 21.532C10.9613 21.252 11.6147 20.832 12.1187 20.272C12.6413 19.712 12.9027 19.012 12.9027 18.172C12.9027 17.4067 12.6787 16.7533 12.2307 16.212C11.8013 15.652 11.2413 15.1573 10.5507 14.728C9.85999 14.28 9.13199 13.86 8.36666 13.468C7.60132 13.0573 6.87332 12.6187 6.18266 12.152C5.49199 11.6853 4.92266 11.144 4.47466 10.528C4.04532 9.912 3.83066 9.17467 3.83066 8.316C3.83066 7.55067 4.01732 6.73867 4.39066 5.88C4.78266 5.00267 5.33332 4.18133 6.04266 3.416C6.75199 2.65067 7.61066 2.03467 8.61866 1.568C9.62666 1.08267 10.7467 0.839999 11.9787 0.839999C13.2667 0.839999 14.172 1.11067 14.6947 1.652C15.2173 2.19333 15.4787 2.90267 15.4787 3.78C15.4787 4.47067 15.3573 5.208 15.1147 5.992C14.872 6.776 14.5733 7.52267 14.2187 8.232C13.8827 8.94133 13.556 9.548 13.2387 10.052C12.828 9.95867 12.52 9.8 12.3147 9.576C12.1093 9.33333 12.0067 9.016 12.0067 8.624C12.0067 8.232 12.0813 7.79333 12.2307 7.308C12.3987 6.82267 12.5853 6.31867 12.7907 5.796C13.0147 5.27333 13.2013 4.76933 13.3507 4.284C13.5187 3.78 13.6027 3.34133 13.6027 2.968C13.6027 2.632 13.5 2.37067 13.2947 2.184C13.108 1.99733 12.716 1.904 12.1187 1.904C11.2227 1.904 10.4013 2.1 9.65466 2.492C8.90799 2.884 8.25466 3.37867 7.69466 3.976C7.15332 4.57333 6.73332 5.208 6.43466 5.88C6.13599 6.53333 5.98666 7.13067 5.98666 7.672C5.98666 8.344 6.20132 8.92267 6.63066 9.408C7.05999 9.87467 7.61066 10.304 8.28266 10.696C8.97332 11.088 9.69199 11.48 10.4387 11.872C11.204 12.264 11.9227 12.7027 12.5947 13.188C13.2853 13.6733 13.8453 14.252 14.2747 14.924C14.704 15.596 14.9187 16.4173 14.9187 17.388C14.9187 18.3587 14.6947 19.2173 14.2467 19.964C13.8173 20.7107 13.2293 21.336 12.4827 21.84C11.736 22.3627 10.9053 22.7547 9.99066 23.016C9.09466 23.296 8.17999 23.436 7.24666 23.436ZM18.1774 22.316C17.5614 22.316 17.0294 22.1107 16.5814 21.7C16.1147 21.2893 15.8814 20.6733 15.8814 19.852C15.8814 19.1987 16.0307 18.4893 16.3294 17.724C16.628 16.9587 17.0387 16.2027 17.5614 15.456C18.084 14.7093 18.6814 14.0373 19.3534 13.44C20.0254 12.824 20.744 12.3293 21.5094 11.956C22.2747 11.5827 23.04 11.396 23.8054 11.396C24.608 11.396 25.2894 11.6013 25.8494 12.012C26.4094 12.4227 26.6894 12.964 26.6894 13.636C26.6894 14.14 26.512 14.504 26.1574 14.728C25.8027 14.952 25.3827 15.0173 24.8974 14.924C24.9347 14.756 24.9627 14.588 24.9814 14.42C25.0187 14.252 25.0374 14.0747 25.0374 13.888C25.0374 13.5147 24.9627 13.1787 24.8134 12.88C24.664 12.5813 24.3467 12.432 23.8614 12.432C23.3387 12.432 22.8067 12.6093 22.2654 12.964C21.724 13.3187 21.2014 13.7853 20.6974 14.364C20.212 14.924 19.7734 15.5493 19.3814 16.24C18.9894 16.912 18.6814 17.5747 18.4574 18.228C18.2334 18.8813 18.1214 19.4693 18.1214 19.992C18.1214 20.5893 18.336 20.888 18.7654 20.888C19.1947 20.888 19.6707 20.6827 20.1934 20.272C20.716 19.8427 21.2387 19.3107 21.7614 18.676C22.3027 18.0413 22.816 17.3973 23.3014 16.744C23.7867 16.072 24.2067 15.5027 24.5614 15.036C24.6174 14.9427 24.692 14.896 24.7854 14.896C24.86 14.9147 25 14.9613 25.2054 15.036C25.4294 15.092 25.6347 15.1853 25.8214 15.316C26.008 15.4467 26.1014 15.6147 26.1014 15.82C26.1014 16.0067 26.0174 16.2493 25.8494 16.548C25.7 16.828 25.5134 17.1453 25.2894 17.5C25.084 17.836 24.8974 18.1813 24.7294 18.536C24.58 18.872 24.5054 19.1987 24.5054 19.516C24.5054 19.7587 24.5707 19.992 24.7014 20.216C24.832 20.4213 25.0467 20.524 25.3454 20.524C25.7934 20.524 26.4187 20.1973 27.2214 19.544C28.0427 18.872 28.8734 17.7427 29.7134 16.156L30.2454 16.688C29.7974 17.696 29.256 18.592 28.6214 19.376C28.0054 20.1413 27.352 20.7387 26.6614 21.168C25.9707 21.616 25.2707 21.84 24.5614 21.84C23.796 21.84 23.2267 21.5973 22.8534 21.112C22.48 20.6267 22.2747 20.104 22.2374 19.544C22.2374 19.5067 22.2374 19.4787 22.2374 19.46C22.2374 19.4413 22.2374 19.4227 22.2374 19.404C21.4907 20.3 20.8 21.0093 20.1654 21.532C19.5494 22.0547 18.8867 22.316 18.1774 22.316ZM43.6948 21.868C42.9668 21.868 42.4254 21.6533 42.0708 21.224C41.7161 20.7947 41.5388 20.2813 41.5388 19.684C41.5388 19.2547 41.6041 18.8253 41.7348 18.396C41.8654 17.9667 41.9961 17.5467 42.1268 17.136C42.2574 16.7067 42.3228 16.324 42.3228 15.988C42.3228 15.6707 42.2574 15.456 42.1268 15.344C42.0148 15.2133 41.8654 15.148 41.6788 15.148C41.2494 15.148 40.7454 15.4747 40.1668 16.128C39.6068 16.7813 38.9068 17.7333 38.0668 18.984C37.7681 19.432 37.4881 19.908 37.2268 20.412C36.9654 20.8973 36.7321 21.308 36.5268 21.644C36.3588 21.644 36.1348 21.616 35.8548 21.56C35.5934 21.504 35.3601 21.42 35.1548 21.308C34.9494 21.2147 34.8468 21.084 34.8468 20.916C34.8468 20.748 34.9401 20.4213 35.1268 19.936C35.3134 19.4507 35.5281 18.8907 35.7708 18.256C36.0134 17.6027 36.2281 16.968 36.4148 16.352C36.6014 15.7173 36.6948 15.1853 36.6948 14.756C36.6948 14.4947 36.6481 14.2893 36.5548 14.14C36.4614 13.9907 36.3121 13.916 36.1068 13.916C35.7148 13.916 35.2388 14.1493 34.6788 14.616C34.1374 15.0827 33.5588 15.6987 32.9428 16.464C32.3454 17.2107 31.7761 18.0507 31.2348 18.984C30.7121 19.8987 30.2828 20.8227 29.9468 21.756C29.7414 21.756 29.4894 21.7093 29.1908 21.616C28.8921 21.5413 28.6308 21.4387 28.4068 21.308C28.1828 21.196 28.0708 21.0933 28.0708 21C28.0708 20.9813 28.1361 20.72 28.2668 20.216C28.3974 19.6933 28.5561 19.0493 28.7428 18.284C28.9294 17.5187 29.1254 16.7347 29.3308 15.932C29.5361 15.1293 29.7134 14.4293 29.8628 13.832C29.9188 13.6267 30.1241 13.4493 30.4788 13.3C30.8334 13.132 31.1414 13.048 31.4028 13.048C31.6641 13.048 31.8881 13.132 32.0748 13.3C32.2614 13.468 32.3548 13.692 32.3548 13.972C32.3548 14.1587 32.3174 14.4293 32.2428 14.784C32.1681 15.1387 32.0748 15.54 31.9628 15.988C32.3548 15.4653 32.7654 14.952 33.1948 14.448C33.6428 13.9253 34.1001 13.4587 34.5668 13.048C35.0521 12.6373 35.5281 12.3107 35.9948 12.068C36.4801 11.8253 36.9561 11.704 37.4228 11.704C38.1134 11.704 38.5801 11.956 38.8228 12.46C39.0654 12.9453 39.1868 13.4773 39.1868 14.056C39.1868 14.2987 39.1681 14.5413 39.1308 14.784C39.0934 15.008 39.0374 15.2413 38.9628 15.484C38.9068 15.708 38.8228 15.9787 38.7108 16.296C39.0654 15.7733 39.4481 15.2973 39.8588 14.868C40.2881 14.42 40.7454 14.0653 41.2308 13.804C41.7161 13.5427 42.2294 13.412 42.7708 13.412C43.4988 13.412 44.0028 13.636 44.2828 14.084C44.5628 14.5133 44.7028 14.9893 44.7028 15.512C44.7028 15.9973 44.6188 16.5107 44.4508 17.052C44.3014 17.5747 44.1428 18.0787 43.9748 18.564C43.8254 19.0307 43.7508 19.432 43.7508 19.768C43.7508 19.9547 43.7974 20.132 43.8908 20.3C43.9841 20.4493 44.1708 20.524 44.4508 20.524C44.9548 20.524 45.4401 20.2907 45.9068 19.824C46.3734 19.3573 46.8028 18.788 47.1948 18.116C47.6054 17.4253 47.9508 16.772 48.2308 16.156L48.7068 16.744C48.4081 17.5093 48.0161 18.2933 47.5308 19.096C47.0641 19.88 46.5134 20.5333 45.8788 21.056C45.2441 21.5973 44.5161 21.868 43.6948 21.868ZM49.7752 21.84C48.9538 21.84 48.3378 21.5973 47.9272 21.112C47.5165 20.6267 47.3112 20.0387 47.3112 19.348C47.3112 18.9187 47.3858 18.3773 47.5352 17.724C47.6845 17.0707 47.8898 16.3893 48.1512 15.68C48.4312 14.952 48.7485 14.2707 49.1032 13.636C49.4578 13.0013 49.8405 12.488 50.2512 12.096C50.6618 11.6853 51.0725 11.48 51.4832 11.48C51.7072 11.48 51.9032 11.5547 52.0712 11.704C52.2392 11.8347 52.3232 12.0307 52.3232 12.292C52.3232 12.5347 52.1738 12.8987 51.8752 13.384C51.5952 13.8693 51.2592 14.4293 50.8672 15.064C50.4938 15.6987 50.1578 16.3613 49.8592 17.052C49.5792 17.724 49.4392 18.368 49.4392 18.984C49.4392 19.5813 49.5418 19.9827 49.7472 20.188C49.9712 20.3747 50.2885 20.468 50.6992 20.468C51.3338 20.468 52.0245 20.1507 52.7712 19.516C53.5178 18.8813 54.2925 17.7707 55.0952 16.184L55.5152 16.632C54.8618 18.2747 54.0312 19.5533 53.0232 20.468C52.0152 21.3827 50.9325 21.84 49.7752 21.84ZM53.0792 9.212C52.7245 9.212 52.3978 9.128 52.0992 8.96C51.8192 8.77333 51.6792 8.49333 51.6792 8.12C51.6792 7.672 51.9218 7.28933 52.4072 6.972C52.8925 6.65467 53.3965 6.496 53.9192 6.496C54.2552 6.496 54.5352 6.57067 54.7592 6.72C55.0018 6.86933 55.1232 7.14 55.1232 7.532C55.1232 7.924 54.9085 8.30667 54.4792 8.68C54.0498 9.03467 53.5832 9.212 53.0792 9.212ZM59.5511 21.728C58.8604 21.728 58.3004 21.5413 57.8711 21.168C57.4418 20.8133 57.2271 20.328 57.2271 19.712C57.2271 19.1893 57.3578 18.6293 57.6191 18.032C57.8804 17.4347 58.1418 16.8467 58.4031 16.268C58.6831 15.6893 58.8231 15.176 58.8231 14.728C58.8231 14.2987 58.6831 13.944 58.4031 13.664C58.1231 13.3653 57.7964 13.1227 57.4231 12.936C57.0124 13.9627 56.5458 14.9613 56.0231 15.932C55.5191 16.884 55.1084 17.6307 54.7911 18.172L54.3711 17.36C54.6324 16.8747 54.9778 16.184 55.4071 15.288C55.8364 14.392 56.2471 13.3933 56.6391 12.292C56.4524 12.1053 56.3591 11.8533 56.3591 11.536C56.3591 11.0507 56.5084 10.5933 56.8071 10.164C57.1058 9.73467 57.3951 9.52 57.6751 9.52C57.8991 9.52 58.0578 9.65067 58.1511 9.912C58.2631 10.1547 58.3191 10.3227 58.3191 10.416C58.3191 10.5093 58.2724 10.6773 58.1791 10.92C58.1044 11.1627 58.0484 11.34 58.0111 11.452C58.0298 11.6573 58.1884 11.8627 58.4871 12.068C58.8044 12.2547 59.1591 12.4787 59.5511 12.74C59.9431 13.0013 60.2884 13.328 60.5871 13.72C60.8858 14.112 61.0351 14.6067 61.0351 15.204C61.0351 15.7453 60.9138 16.296 60.6711 16.856C60.4284 17.416 60.1858 17.9387 59.9431 18.424C59.7004 18.9093 59.5791 19.3293 59.5791 19.684C59.5791 19.9453 59.6444 20.1227 59.7751 20.216C59.9244 20.2907 60.0924 20.328 60.2791 20.328C60.7271 20.328 61.1938 20.1973 61.6791 19.936C62.1644 19.656 62.6404 19.3013 63.1071 18.872C63.5738 18.4427 63.9844 17.9947 64.3391 17.528C64.6938 17.0427 64.9644 16.604 65.1511 16.212L65.8231 16.716C65.4684 17.5187 64.9551 18.312 64.2831 19.096C63.6111 19.8613 62.8644 20.496 62.0431 21C61.2218 21.4853 60.3911 21.728 59.5511 21.728ZM73.8324 23.436C73.9444 22.764 74.0657 22.0827 74.1964 21.392C74.3457 20.7013 74.5231 19.936 74.7284 19.096C74.9524 18.256 75.2231 17.2947 75.5404 16.212C75.8764 15.1293 76.2777 13.8693 76.7444 12.432C76.4644 12.4507 76.1564 12.4787 75.8204 12.516C75.5031 12.5533 75.2044 12.5813 74.9244 12.6C74.9244 12.0027 75.1484 11.5453 75.5964 11.228C76.0444 10.9107 76.6324 10.6773 77.3604 10.528C77.4351 10.2667 77.5004 10.0613 77.5564 9.912C77.6124 9.76267 77.6777 9.576 77.7524 9.352C77.8271 9.128 77.9391 8.82 78.0884 8.428C78.2377 8.01733 78.4337 7.43867 78.6764 6.692C78.9377 5.94533 79.2737 4.96533 79.6844 3.752C79.7217 3.65867 79.7871 3.472 79.8804 3.192C79.9737 2.912 80.0204 2.65067 80.0204 2.408C80.0204 2.25867 79.9924 2.156 79.9364 2.1C79.8991 2.044 79.8057 2.016 79.6564 2.016C79.2831 2.016 78.9004 2.184 78.5084 2.52C78.1351 2.856 77.7897 3.28533 77.4724 3.808C77.1551 4.312 76.9031 4.844 76.7164 5.404C76.5297 5.94533 76.4364 6.43067 76.4364 6.86C76.4364 7.00933 76.4551 7.17733 76.4924 7.364C76.5297 7.55067 76.6044 7.80267 76.7164 8.12C75.9324 8.12 75.3631 7.952 75.0084 7.616C74.6724 7.26133 74.5044 6.81333 74.5044 6.272C74.5044 5.63733 74.6911 5.00267 75.0644 4.368C75.4564 3.73333 75.9511 3.15467 76.5484 2.632C77.1644 2.09067 77.8084 1.66133 78.4804 1.344C79.1711 1.008 79.8057 0.839999 80.3844 0.839999C80.9817 0.839999 81.3924 0.998666 81.6164 1.316C81.8404 1.63333 81.9524 1.988 81.9524 2.38C81.9524 2.58533 81.9244 2.79067 81.8684 2.996C81.8311 3.20133 81.7844 3.39733 81.7284 3.584L79.6844 10.304C79.9084 10.2853 80.1324 10.276 80.3564 10.276C80.5991 10.276 80.8417 10.276 81.0844 10.276C81.9991 10.276 82.8577 10.2947 83.6604 10.332C84.4631 10.3693 85.2377 10.4253 85.9844 10.5C86.4511 8.932 86.8431 7.644 87.1604 6.636C87.4964 5.628 87.7857 4.79733 88.0284 4.144C88.2897 3.472 88.5231 2.884 88.7284 2.38C88.8031 2.23067 88.9057 2.03467 89.0364 1.792C89.1857 1.53067 89.3911 1.30667 89.6524 1.12C89.9324 0.914666 90.2964 0.812 90.7444 0.812C90.5017 1.46533 90.2031 2.33333 89.8484 3.416C89.5124 4.48 89.1671 5.64667 88.8124 6.916C88.4577 8.16667 88.1217 9.408 87.8044 10.64C88.0657 10.64 88.4297 10.6587 88.8964 10.696C89.3817 10.7147 89.8297 10.724 90.2404 10.724C89.6617 11.3027 89.1484 11.6667 88.7004 11.816C88.2524 11.9467 87.8417 12.012 87.4684 12.012C87.2631 12.8707 87.0764 13.692 86.9084 14.476C86.7404 15.26 86.6004 15.988 86.4884 16.66C86.2644 17.8547 86.0964 18.9 85.9844 19.796C85.8911 20.6733 85.8444 21.392 85.8444 21.952C85.8444 22.2507 85.8537 22.512 85.8724 22.736C85.9097 22.9787 85.9471 23.212 85.9844 23.436C85.0324 23.3427 84.3791 23.1093 84.0244 22.736C83.6884 22.3813 83.5204 21.7467 83.5204 20.832C83.5204 20.4027 83.5484 19.9267 83.6044 19.404C83.6791 18.8813 83.8004 18.2653 83.9684 17.556C84.1177 16.8653 84.3231 16.072 84.5844 15.176C84.8457 14.28 85.1631 13.2347 85.5364 12.04C84.3977 12.04 83.4551 12.0493 82.7084 12.068C81.9617 12.0867 81.3084 12.1053 80.7484 12.124C80.1884 12.1427 79.6284 12.18 79.0684 12.236C79.0497 12.3107 79.0031 12.4693 78.9284 12.712C78.8537 12.9547 78.7231 13.384 78.5364 14C78.3497 14.616 78.0697 15.5213 77.6964 16.716C77.3231 17.9107 76.8191 19.516 76.1844 21.532C75.9791 22.2227 75.6244 22.708 75.1204 22.988C74.6164 23.2867 74.1871 23.436 73.8324 23.436ZM94.0788 22.232C93.3135 22.232 92.6975 22.036 92.2308 21.644C91.7828 21.2707 91.5588 20.7387 91.5588 20.048C91.5588 19.3573 91.7828 18.7133 92.2308 18.116C92.6975 17.5187 93.3041 16.996 94.0508 16.548C94.8161 16.0813 95.6561 15.708 96.5708 15.428C97.4855 15.1293 98.4001 14.952 99.3148 14.896L98.9228 15.932C98.4188 15.9507 97.8495 16.0907 97.2148 16.352C96.5801 16.6133 95.9641 16.9587 95.3668 17.388C94.7881 17.8173 94.3028 18.284 93.9108 18.788C93.5375 19.292 93.3508 19.796 93.3508 20.3C93.3508 20.7853 93.5935 21.028 94.0788 21.028C94.6575 21.028 95.2361 20.7947 95.8148 20.328C96.4121 19.8427 96.9535 19.236 97.4388 18.508C97.9241 17.78 98.3161 17.0333 98.6148 16.268C98.9135 15.5027 99.0628 14.84 99.0628 14.28C99.0628 13.72 98.9135 13.216 98.6148 12.768C98.3348 12.32 97.8495 12.096 97.1588 12.096C96.3561 12.096 95.6561 12.3667 95.0588 12.908C94.4801 13.4307 94.0321 14.196 93.7148 15.204C93.4161 15.1667 93.1361 15.064 92.8748 14.896C92.6135 14.7093 92.4828 14.448 92.4828 14.112C92.4828 13.552 92.7068 13.0293 93.1548 12.544C93.6215 12.0587 94.2281 11.6667 94.9748 11.368C95.7401 11.0507 96.5521 10.892 97.4108 10.892C98.6615 10.892 99.6135 11.2187 100.267 11.872C100.92 12.5067 101.247 13.3093 101.247 14.28C101.247 15.1013 101.032 15.9787 100.603 16.912C100.192 17.8267 99.6415 18.6947 98.9508 19.516C98.2601 20.3187 97.4855 20.972 96.6268 21.476C95.7868 21.98 94.9375 22.232 94.0788 22.232ZM105.991 22.428C105.058 22.428 104.302 22.232 103.723 21.84C103.163 21.4667 102.762 20.9907 102.519 20.412C102.276 19.8147 102.155 19.208 102.155 18.592C102.155 18.0507 102.23 17.6307 102.379 17.332C102.528 17.0333 102.715 16.8187 102.939 16.688C103.163 16.5387 103.368 16.4267 103.555 16.352C103.76 16.2773 103.91 16.1933 104.003 16.1C104.47 15.6147 104.946 15.0547 105.431 14.42C105.935 13.7667 106.364 13.048 106.719 12.264V11.984C106.719 11.2373 106.84 10.7147 107.083 10.416C107.344 10.0987 107.643 9.94 107.979 9.94C108.203 9.94 108.362 9.996 108.455 10.108C108.567 10.22 108.632 10.3507 108.651 10.5C108.651 10.612 108.623 10.7427 108.567 10.892C108.53 11.0413 108.511 11.2467 108.511 11.508C108.511 12.068 108.642 12.712 108.903 13.44C109.183 14.1493 109.454 14.9053 109.715 15.708C109.995 16.5107 110.135 17.332 110.135 18.172C110.135 18.396 110.126 18.6013 110.107 18.788C110.088 18.9747 110.06 19.152 110.023 19.32C110.602 19.1707 111.171 18.8533 111.731 18.368C112.291 17.864 112.823 17.1267 113.327 16.156L113.663 16.408C113.308 17.472 112.795 18.3307 112.123 18.984C111.451 19.6187 110.667 20.0107 109.771 20.16C109.472 20.9253 108.978 21.4947 108.287 21.868C107.615 22.2413 106.85 22.428 105.991 22.428ZM105.795 21.196C106.168 21.196 106.514 21.1027 106.831 20.916C107.148 20.7293 107.4 20.4587 107.587 20.104C106.822 19.936 106.131 19.6373 105.515 19.208C104.899 18.7787 104.423 18.34 104.087 17.892C103.826 17.948 103.695 18.2 103.695 18.648C103.695 19.264 103.872 19.8427 104.227 20.384C104.582 20.9253 105.104 21.196 105.795 21.196ZM107.811 19.264C107.848 19.1333 107.867 18.984 107.867 18.816C107.886 18.6293 107.895 18.4893 107.895 18.396C107.876 17.556 107.764 16.7253 107.559 15.904C107.354 15.0827 107.148 14.2427 106.943 13.384C106.607 13.9627 106.215 14.588 105.767 15.26C105.319 15.932 104.899 16.4733 104.507 16.884C104.806 17.388 105.244 17.864 105.823 18.312C106.402 18.76 107.064 19.0773 107.811 19.264ZM116.227 22.232C115.462 22.232 114.846 22.036 114.379 21.644C113.931 21.2707 113.707 20.7387 113.707 20.048C113.707 19.3573 113.931 18.7133 114.379 18.116C114.846 17.5187 115.453 16.996 116.199 16.548C116.965 16.0813 117.805 15.708 118.719 15.428C119.634 15.1293 120.549 14.952 121.463 14.896L121.071 15.932C120.567 15.9507 119.998 16.0907 119.363 16.352C118.729 16.6133 118.113 16.9587 117.515 17.388C116.937 17.8173 116.451 18.284 116.059 18.788C115.686 19.292 115.499 19.796 115.499 20.3C115.499 20.7853 115.742 21.028 116.227 21.028C116.806 21.028 117.385 20.7947 117.963 20.328C118.561 19.8427 119.102 19.236 119.587 18.508C120.073 17.78 120.465 17.0333 120.763 16.268C121.062 15.5027 121.211 14.84 121.211 14.28C121.211 13.72 121.062 13.216 120.763 12.768C120.483 12.32 119.998 12.096 119.307 12.096C118.505 12.096 117.805 12.3667 117.207 12.908C116.629 13.4307 116.181 14.196 115.863 15.204C115.565 15.1667 115.285 15.064 115.023 14.896C114.762 14.7093 114.631 14.448 114.631 14.112C114.631 13.552 114.855 13.0293 115.303 12.544C115.77 12.0587 116.377 11.6667 117.123 11.368C117.889 11.0507 118.701 10.892 119.559 10.892C120.81 10.892 121.762 11.2187 122.415 11.872C123.069 12.5067 123.395 13.3093 123.395 14.28C123.395 15.1013 123.181 15.9787 122.751 16.912C122.341 17.8267 121.79 18.6947 121.099 19.516C120.409 20.3187 119.634 20.972 118.775 21.476C117.935 21.98 117.086 22.232 116.227 22.232ZM134.299 21.56C133.571 21.56 133.011 21.3733 132.619 21C132.246 20.6453 132.059 20.188 132.059 19.628C132.059 19.2547 132.125 18.8627 132.255 18.452C132.386 18.0227 132.517 17.5933 132.647 17.164C132.778 16.7347 132.843 16.324 132.843 15.932C132.843 15.5213 132.741 15.2413 132.535 15.092C132.349 14.924 132.125 14.84 131.863 14.84C131.303 14.84 130.725 15.0733 130.127 15.54C129.549 15.988 128.979 16.5573 128.419 17.248C127.878 17.9387 127.365 18.6573 126.879 19.404C126.394 20.1507 125.974 20.8227 125.619 21.42C125.265 21.42 124.929 21.3547 124.611 21.224C124.294 21.112 124.023 20.9067 123.799 20.608C123.818 20.5147 123.93 20.2347 124.135 19.768C124.322 19.2827 124.537 18.7133 124.779 18.06C125.022 17.388 125.237 16.688 125.423 15.96C125.61 15.232 125.703 14.5693 125.703 13.972C125.834 13.8227 126.03 13.6733 126.291 13.524C126.571 13.3747 126.861 13.3 127.159 13.3C127.813 13.3 128.139 13.58 128.139 14.14C128.139 14.364 128.093 14.7 127.999 15.148C127.925 15.5773 127.813 16.072 127.663 16.632C128.149 15.9787 128.681 15.3627 129.259 14.784C129.838 14.2053 130.435 13.7387 131.051 13.384C131.686 13.0107 132.321 12.824 132.955 12.824C133.758 12.824 134.346 13.0947 134.719 13.636C135.111 14.1773 135.307 14.7747 135.307 15.428C135.307 15.988 135.214 16.5107 135.027 16.996C134.841 17.4813 134.654 17.9387 134.467 18.368C134.299 18.7973 134.215 19.2173 134.215 19.628C134.215 19.9267 134.281 20.1413 134.411 20.272C134.561 20.384 134.719 20.44 134.887 20.44C135.335 20.44 135.802 20.2253 136.287 19.796C136.773 19.3667 137.23 18.8253 137.659 18.172C138.107 17.5 138.499 16.828 138.835 16.156L139.311 16.548C138.919 17.4627 138.471 18.3027 137.967 19.068C137.482 19.8147 136.931 20.4213 136.315 20.888C135.718 21.336 135.046 21.56 134.299 21.56ZM139.946 21.896C139.106 21.896 138.527 21.616 138.21 21.056C137.911 20.5147 137.762 19.9173 137.762 19.264C137.762 18.6667 137.855 18.06 138.042 17.444C138.228 16.8093 138.48 16.2213 138.798 15.68C139.134 15.1387 139.498 14.7093 139.89 14.392C140.3 14.056 140.711 13.888 141.122 13.888C141.252 13.888 141.402 13.916 141.57 13.972C141.756 14.0093 141.887 14.0747 141.962 14.168C141.738 14.448 141.504 14.7933 141.262 15.204C141.038 15.6147 140.823 16.0533 140.618 16.52C140.431 16.968 140.282 17.4253 140.17 17.892C140.058 18.3587 140.002 18.788 140.002 19.18C140.002 19.5533 140.067 19.8613 140.198 20.104C140.347 20.3467 140.599 20.468 140.954 20.468C141.308 20.468 141.728 20.272 142.214 19.88C142.718 19.4693 143.194 19.0027 143.642 18.48C143.044 17.9387 142.615 17.3507 142.354 16.716C142.092 16.0627 141.962 15.2787 141.962 14.364C141.962 13.972 142.055 13.524 142.242 13.02C142.447 12.516 142.764 12.0773 143.194 11.704C143.642 11.3307 144.239 11.144 144.986 11.144C145.788 11.144 146.348 11.368 146.666 11.816C147.002 12.264 147.17 12.796 147.17 13.412C147.17 14.1027 146.983 14.8773 146.61 15.736C146.255 16.5947 145.826 17.4067 145.322 18.172C145.546 18.284 145.807 18.34 146.106 18.34C146.386 18.34 146.722 18.2747 147.114 18.144C147.506 18.0133 147.888 17.7987 148.262 17.5C148.635 17.1827 148.934 16.7627 149.158 16.24L149.662 16.604C149.251 17.556 148.7 18.256 148.01 18.704C147.338 19.1333 146.675 19.348 146.022 19.348C145.779 19.348 145.536 19.3293 145.294 19.292C145.051 19.236 144.827 19.1707 144.622 19.096C143.987 19.8427 143.259 20.496 142.438 21.056C141.616 21.616 140.786 21.896 139.946 21.896ZM144.37 17.584C144.818 16.9307 145.2 16.2307 145.518 15.484C145.835 14.7373 145.994 14.0467 145.994 13.412C145.994 12.9827 145.928 12.6747 145.798 12.488C145.667 12.2827 145.471 12.18 145.21 12.18C144.855 12.18 144.491 12.432 144.118 12.936C143.744 13.44 143.558 14.0747 143.558 14.84C143.558 15.232 143.623 15.708 143.754 16.268C143.903 16.828 144.108 17.2667 144.37 17.584ZM150.588 22.092C149.897 22.092 149.412 21.7747 149.132 21.14C148.87 20.524 148.74 19.7213 148.74 18.732C148.74 18.5267 148.749 18.1627 148.768 17.64C148.786 17.0987 148.814 16.352 148.852 15.4C148.87 14.84 148.926 14.4573 149.02 14.252C149.132 14.0467 149.43 13.944 149.916 13.944C150.364 13.944 150.625 14.0373 150.7 14.224C150.793 14.392 150.84 14.7467 150.84 15.288C150.84 15.848 150.812 16.4453 150.756 17.08C150.718 17.7147 150.7 18.3307 150.7 18.928C150.7 19.5067 150.728 19.936 150.784 20.216C150.84 20.4773 150.98 20.608 151.204 20.608C151.54 20.608 151.904 20.4307 152.296 20.076C152.688 19.7027 153.08 19.236 153.472 18.676C153.882 18.0973 154.265 17.4813 154.62 16.828C154.993 16.156 155.32 15.512 155.6 14.896C155.637 13.6267 155.786 12.7773 156.048 12.348C156.309 11.9187 156.645 11.704 157.056 11.704C157.522 11.704 157.84 11.8533 158.008 12.152C158.176 12.4507 158.26 12.712 158.26 12.936C158.26 13.216 158.185 13.468 158.036 13.692C157.886 13.916 157.737 14.224 157.588 14.616C157.438 15.008 157.364 15.6053 157.364 16.408C157.364 16.6693 157.382 16.9587 157.42 17.276C157.476 17.5747 157.588 17.836 157.756 18.06C157.942 18.2653 158.213 18.368 158.568 18.368C158.941 18.368 159.296 18.2187 159.632 17.92C159.986 17.6027 160.36 17.0613 160.752 16.296L161.06 16.548C160.63 17.5747 160.145 18.2933 159.604 18.704C159.081 19.1147 158.577 19.32 158.092 19.32C157.476 19.32 156.972 19.0773 156.58 18.592C156.206 18.088 155.917 17.4627 155.712 16.716C155.264 17.556 154.75 18.3867 154.172 19.208C153.612 20.0293 153.024 20.7107 152.408 21.252C151.792 21.812 151.185 22.092 150.588 22.092Z" fill="#A47600"/>
</svg>
