<svg width="61" height="66" viewBox="0 0 61 66" fill="none" xmlns="http://www.w3.org/2000/svg">
<path d="M34.0213 16.4922L31.7616 11.6559C31.5365 11.1715 31.043 10.8604 30.5 10.8604C29.9569 10.8604 29.4634 11.1715 29.2383 11.6559L26.9786 16.4926L21.9877 17.199V17.1986C21.4613 17.2686 21.0222 17.6275 20.8569 18.122C20.6917 18.6164 20.8295 19.16 21.2111 19.5217L24.8573 22.9997L23.9977 27.9041H23.9981C23.9118 28.4127 24.1262 28.9249 24.5524 29.2273C24.9785 29.5294 25.542 29.5694 26.0081 29.3306L30.5 27.0212C35.0751 29.3716 35.5328 29.8878 36.4616 29.2218C37.3904 28.5564 37.0302 27.9991 36.1427 22.9995C39.872 19.4402 40.4959 19.1954 40.1357 18.1223C39.775 17.0493 39.1511 17.2257 34.0214 16.492L34.0213 16.4922ZM33.7994 25.6489C29.8205 23.5974 31.1099 23.6246 27.2001 25.6489C27.9488 21.3966 28.2951 22.4833 25.1624 19.4943C29.5847 18.8693 28.6006 19.5621 30.5001 15.4864C32.3995 19.5621 31.415 18.8693 35.8378 19.4943C32.6766 22.5106 33.0508 21.4102 33.7996 25.6489H33.7994Z" fill="#2E4480"/>
<path d="M56.0371 10.8685H48.5233V7.90674C49.7557 7.4687 50.705 6.48665 51.0852 5.25707C51.4649 4.02749 51.2314 2.69427 50.4544 1.65986C49.6773 0.625014 48.4477 0.0100146 47.1368 0H13.8639C12.553 0.0100074 11.3233 0.625003 10.5463 1.65986C9.76925 2.69425 9.53576 4.02749 9.91547 5.25707C10.2956 6.48665 11.245 7.46866 12.4774 7.90674V10.8685H4.96362C3.64814 10.8721 2.38781 11.3857 1.45807 12.2973C0.52784 13.2084 0.00380263 14.4435 0 15.7326C0 19.115 5.185 29.8892 16.1374 35.3227L19.1458 36.8033V36.8038C20.4877 37.8687 21.9768 38.7424 23.5686 39.3984V46.1911L19.4094 46.1915C18.3061 46.1915 17.2481 46.6209 16.4683 47.3851C15.6886 48.1493 15.2503 49.186 15.2503 50.2672V62.4943H12.4773C11.7118 62.4943 11.0912 63.1025 11.0912 63.8526C11.0912 64.6031 11.7118 65.2113 12.4773 65.2113H48.5238C49.2892 65.2113 49.9098 64.6031 49.9098 63.8526C49.9098 63.1025 49.2892 62.4943 48.5238 62.4943H45.7507V50.2672C45.7507 49.186 45.3125 48.1493 44.5327 47.3851C43.7528 46.621 42.6949 46.1915 41.5916 46.1915H37.4325V39.3984C39.0251 38.7379 40.5143 37.86 41.8553 36.7902L44.8636 35.3227C52.3863 31.5986 58.0991 25.107 60.7515 17.2673C61.2486 15.7835 60.991 14.1569 60.0584 12.891C59.1259 11.625 57.6312 10.8731 56.0376 10.8681L56.0371 10.8685ZM30.5001 38.0406C26.4556 38.0406 22.5763 36.4659 19.7165 33.6633C16.8567 30.8607 15.2501 27.0599 15.2501 23.0961V8.15221H45.7495V23.0961C45.7495 27.0599 44.1429 30.8609 41.2831 33.6633C38.4233 36.4658 34.544 38.0406 30.4996 38.0406H30.5001ZM13.8636 2.71709H47.1366C47.902 2.71709 48.5231 3.32572 48.5231 4.07582C48.5231 4.82591 47.902 5.43454 47.1366 5.43454H13.8636C13.0981 5.43454 12.477 4.82591 12.477 4.07582C12.477 3.32572 13.0981 2.71709 13.8636 2.71709ZM2.88372 16.4114C2.66045 15.7564 2.77278 15.0363 3.18498 14.4764C3.59671 13.9165 4.25866 13.5853 4.96331 13.5858H12.4771C12.4771 23.0959 11.9502 26.4103 14.5148 31.2475L14.5153 31.2471C9.03876 27.7317 4.93905 22.5025 2.88362 16.4115L2.88372 16.4114ZM42.9777 50.2665V62.4936H18.0229V50.2665C18.0229 49.516 18.6436 48.9078 19.4095 48.9078H41.5907C41.9583 48.9078 42.3111 49.0511 42.571 49.3058C42.831 49.5606 42.9772 49.9063 42.9772 50.2665H42.9777ZM34.6594 46.1908H26.3412V40.2675C29.0738 40.9193 31.9268 40.9193 34.6594 40.2675V46.1908ZM58.1169 16.4114C56.0614 22.5023 51.9617 27.7315 46.4852 31.247C49.0917 26.3156 48.5234 22.8513 48.5234 13.5864H56.0377H56.0372C56.7418 13.5859 57.4038 13.9171 57.8155 14.477C58.2277 15.037 58.3401 15.7571 58.1168 16.4121L58.1169 16.4114Z" fill="#2E4480"/>
<path d="M23.5682 54.3424H37.4311C38.197 54.3424 38.8177 53.7338 38.8177 52.9837C38.8177 52.2336 38.197 51.625 37.4311 51.625H23.5682C22.8023 51.625 22.1816 52.2336 22.1816 52.9837C22.1816 53.7338 22.8023 54.3424 23.5682 54.3424Z" fill="#2E4480"/>
<path d="M34.6591 57.0571H26.3409C25.5754 57.0571 24.9543 57.6653 24.9543 58.4159C24.9543 59.1659 25.5754 59.7741 26.3409 59.7741H34.6591C35.4246 59.7741 36.0457 59.1659 36.0457 58.4159C36.0457 57.6653 35.4246 57.0571 34.6591 57.0571Z" fill="#2E4480"/>
</svg>
