<svg width="68" height="65" viewBox="0 0 68 65" fill="none" xmlns="http://www.w3.org/2000/svg">
<path d="M5.62715 60.716H34.8566C35.0438 60.7275 35.2315 60.7275 35.4187 60.716C37.1316 60.6372 38.7437 59.8834 39.9025 58.6192C41.0608 57.3555 41.672 55.6842 41.6019 53.9707V11.2508H50.5956C50.8937 11.2508 51.1798 11.1323 51.3905 10.9215C51.6013 10.7107 51.7198 10.4247 51.7198 10.1265V6.75392C51.79 5.04049 51.1788 3.36921 50.0204 2.10547C48.8615 0.841241 47.2495 0.0874164 45.5366 0.00865745C45.3494 -0.00288581 45.1617 -0.00288581 44.9745 0.00865745H12.9339C11.221 0.0874524 9.60891 0.841279 8.45014 2.10547C7.29181 3.3692 6.68057 5.04049 6.75072 6.75392V49.4739H1.12967C0.508849 49.4739 0.00545994 49.9773 0.00545994 50.5981V53.9707C-0.0607875 55.5918 0.477731 57.1798 1.51666 58.4265C2.55504 59.6726 4.01998 60.4887 5.62651 60.716H5.62715ZM49.4714 6.75392V9.00234H41.6019V6.75392C41.5336 5.63724 41.909 4.53916 42.6453 3.69697C43.3821 2.85531 44.4209 2.33789 45.5366 2.25708C46.6523 2.33788 47.6913 2.85531 48.428 3.69697C49.1642 4.53912 49.5396 5.63729 49.4714 6.75392ZM8.99978 10.1265V6.75392C8.93203 5.6262 9.31646 4.5186 10.0673 3.67435C10.8181 2.83069 11.874 2.3208 13.0018 2.25708H40.9387C39.9069 3.52783 39.3467 5.11681 39.3538 6.75392V53.9707C39.4221 55.0874 39.0466 56.1855 38.3104 57.0277C37.5736 57.8693 36.5348 58.3868 35.419 58.4676C34.3034 58.3868 33.2644 57.8693 32.5277 57.0277C31.7914 56.1855 31.4161 55.0874 31.4843 53.9707V50.5981C31.4843 50.3 31.3659 50.0139 31.1551 49.8031C30.9443 49.5923 30.6582 49.4739 30.3601 49.4739H9.00009L8.99978 10.1265ZM2.25452 53.9707V51.7223H29.2356V53.9707C29.2285 55.6078 29.7886 57.1968 30.8205 58.4676H6.18939C5.07371 58.3868 4.03476 57.8693 3.29805 57.0277C2.56179 56.1855 2.18627 55.0874 2.25452 53.9707Z" fill="#2E4480"/>
<path d="M66.4694 10.8575L64.3786 10.61L64.9859 5.13507H64.9854C65.0516 4.52529 64.616 3.97473 64.0072 3.89844L59.7468 3.38151C59.4482 3.33785 59.1455 3.42367 58.9147 3.61739C58.6818 3.80358 58.5322 4.0746 58.4986 4.37071L57.7568 10.9583L52.844 55.0055C52.8274 55.121 52.8274 55.2384 52.844 55.3538L54.0354 61.0421V61.0426C51.9426 61.9229 49.647 62.2069 47.4026 61.8631C46.7682 61.7357 46.1439 61.559 45.5366 61.3347C44.6584 61.0054 43.7395 60.7971 42.8049 60.7163C40.0973 60.6305 37.4458 61.5023 35.3174 63.1786L36.6438 64.9999L36.6443 64.9994C38.3382 63.6267 40.4677 62.905 42.6473 62.9648C43.3962 63.02 44.132 63.1906 44.8286 63.4707C48.2464 64.7224 52.0251 64.5402 55.3063 62.9648H55.3736C55.8127 62.9658 56.2122 62.7113 56.3964 62.3128L59.2522 56.096C59.2978 55.9881 59.328 55.8747 59.342 55.7588L64.0863 12.8473L65.0529 12.9598L63.7491 25.0225L65.9975 25.2699L67.459 12.0942C67.5247 11.4804 67.0831 10.9283 66.4698 10.8575L66.4694 10.8575ZM62.6355 5.9897L62.1406 10.3515L60.1176 10.1267L60.6009 5.77591L62.6355 5.9897ZM55.7778 58.2764L55.2047 55.5672L56.1603 54.8139L56.9246 55.7805L55.7778 58.2764ZM57.4189 52.7788L57.2277 52.5314L57.2282 52.5319C57.0415 52.292 56.7659 52.1379 56.4638 52.1048C56.1647 52.0722 55.8646 52.1615 55.6317 52.3517L55.3843 52.5429L59.8811 12.3412L61.9047 12.5771L57.4189 52.7788Z" fill="#2E4480"/>
<path d="M19.0395 15.7475L18.3424 20.0647C18.2631 20.4973 18.4432 20.9365 18.8036 21.1889C19.1549 21.4379 19.6176 21.4639 19.995 21.2562L23.6151 19.2215L27.2352 21.2341V21.2336C27.4054 21.3219 27.5941 21.3681 27.7858 21.3686C28.0152 21.3681 28.239 21.2973 28.4267 21.1663C28.787 20.9139 28.9672 20.4747 28.8879 20.0421L28.1908 15.7475L31.17 12.6895C31.4601 12.3869 31.5575 11.9478 31.4225 11.5508C31.288 11.1538 30.9437 10.8647 30.5291 10.801L26.4593 10.1264L24.638 6.2815C24.4558 5.881 24.0558 5.62354 23.6152 5.62354C23.1745 5.62354 22.7745 5.881 22.5923 6.2815L20.771 10.1264L16.7012 10.7558C16.2867 10.82 15.9424 11.1091 15.8079 11.5061C15.6729 11.9031 15.7702 12.3417 16.0603 12.6449L19.0395 15.7475ZM21.7039 12.3077C22.0718 12.2504 22.3875 12.0146 22.5471 11.6778L23.6151 9.42939L24.6831 11.6778C24.8427 12.0146 25.1584 12.2504 25.5262 12.3077L28.0332 12.6901L26.1782 14.6234C25.9292 14.8793 25.8168 15.2382 25.8745 15.59L26.3016 18.1867L24.1546 17.0063V17.0068C23.8068 16.806 23.3781 16.806 23.0304 17.0068L20.8833 18.1872L21.3666 15.5454C21.4248 15.1931 21.3119 14.8342 21.063 14.5783L19.208 12.6897L21.7039 12.3077Z" fill="#2E4480"/>
<path d="M11.248 23.6169H24.7386V25.8654H11.248V23.6169Z" fill="#2E4480"/>
<path d="M26.9871 23.6169H37.105V25.8654H26.9871V23.6169Z" fill="#2E4480"/>
<path d="M11.248 28.114H37.1049V30.3624H11.248V28.114Z" fill="#2E4480"/>
<path d="M11.248 32.6108H37.1049V34.8593H11.248V32.6108Z" fill="#2E4480"/>
<path d="M11.248 37.1077H29.2354V39.3561H11.248V37.1077Z" fill="#2E4480"/>
<path d="M12.3723 48.3495H17.9933C18.2914 48.3495 18.5775 48.2311 18.7883 48.0203C18.9991 47.8095 19.1175 47.5234 19.1175 47.2253V42.7285C19.1175 42.4303 18.9991 42.1443 18.7883 41.9335C18.5775 41.7227 18.2914 41.6042 17.9933 41.6042H12.3723C11.7514 41.6042 11.248 42.1076 11.248 42.7285V47.2253C11.248 47.5234 11.3665 47.8095 11.5773 48.0203C11.7881 48.2311 12.0741 48.3495 12.3723 48.3495ZM13.4965 43.8527H16.8691V46.1011H13.4965V43.8527Z" fill="#2E4480"/>
<path d="M35.9809 41.6042H30.3598C29.739 41.6042 29.2356 42.1076 29.2356 42.7285V47.2253C29.2356 47.5234 29.354 47.8095 29.5648 48.0203C29.7756 48.2311 30.0617 48.3495 30.3598 48.3495H35.9809C36.279 48.3495 36.565 48.2311 36.7758 48.0203C36.9866 47.8095 37.1051 47.5234 37.1051 47.2253V42.7285C37.1051 42.4303 36.9866 42.1443 36.7758 41.9335C36.565 41.7227 36.279 41.6042 35.9809 41.6042ZM34.8566 46.1011H31.484V43.8527H34.8566V46.1011Z" fill="#2E4480"/>
<path d="M26.987 41.6042H21.3659C20.7451 41.6042 20.2417 42.1076 20.2417 42.7285V47.2253C20.2417 47.5234 20.3601 47.8095 20.5709 48.0203C20.7817 48.2311 21.0678 48.3495 21.3659 48.3495H26.987C27.2851 48.3495 27.5712 48.2311 27.7819 48.0203C27.9927 47.8095 28.1112 47.5234 28.1112 47.2253V42.7285C28.1112 42.4303 27.9927 42.1443 27.7819 41.9335C27.5711 41.7227 27.2851 41.6042 26.987 41.6042ZM25.8628 46.1011H22.4901V43.8527H25.8628V46.1011Z" fill="#2E4480"/>
</svg>
