<svg width="74" height="66" viewBox="0 0 74 66" fill="none" xmlns="http://www.w3.org/2000/svg">
<path d="M36.9739 33.1345C32.1951 33.1302 27.6517 35.2082 24.5294 38.8254C21.4074 42.4433 20.0165 47.2423 20.7196 51.9685C21.4232 56.6953 24.1516 60.8811 28.1919 63.4322C28.2053 63.4383 28.2157 63.4493 28.2298 63.4555C30.8432 65.1177 33.8767 65.9999 36.9737 65.9999C40.0707 65.9999 43.1042 65.1177 45.7176 63.4555C45.7311 63.45 45.7415 63.439 45.7556 63.4322C49.7958 60.8811 52.5243 56.6953 53.2279 51.9685C53.9309 47.2423 52.5402 42.4433 49.418 38.8254C46.296 35.2082 41.7525 33.1301 36.9736 33.1345H36.9739ZM30.1269 61.4082V61.2071C30.1287 59.3919 30.8513 57.6515 32.1345 56.3683C33.4183 55.0845 35.1587 54.3626 36.9739 54.3601C38.789 54.3631 40.5288 55.0857 41.812 56.3689C43.0951 57.6528 43.8177 59.3919 43.8208 61.2071V61.4088C41.7429 62.6217 39.3801 63.2612 36.9739 63.2612C34.5676 63.2612 32.2048 62.6217 30.1269 61.4088V61.4082ZM32.8657 47.5132C32.8657 46.4238 33.2985 45.3789 34.0688 44.6086C34.8391 43.8377 35.8845 43.4049 36.9738 43.4049C38.063 43.4049 39.1086 43.8377 39.8788 44.6086C40.6491 45.3789 41.0819 46.4237 41.0819 47.5132C41.0819 48.6032 40.6491 49.648 39.8788 50.4181C39.1085 51.1883 38.063 51.6213 36.9738 51.6213C35.8844 51.62 34.8402 51.1872 34.0699 50.4169C33.3002 49.6466 32.8668 48.6024 32.8656 47.513L32.8657 47.5132ZM46.3989 59.4763C45.8597 56.5682 44.0141 54.0697 41.3933 52.699C42.8312 51.4837 43.7059 49.7297 43.8105 47.8499C43.915 45.97 43.2413 44.1299 41.9465 42.7624C40.6524 41.3948 38.852 40.6208 36.969 40.6221C35.0861 40.6233 33.287 41.4003 31.9946 42.7697C30.7022 44.1391 30.031 45.9799 30.1386 47.8596C30.2456 49.7395 31.1229 51.4922 32.5625 52.7057C29.9386 54.0715 28.09 56.5706 27.5526 59.4799C24.8866 56.9527 23.3478 53.4594 23.2824 49.7865C23.217 46.1136 24.6298 42.5678 27.2042 39.9471C29.7785 37.3257 33.2981 35.8492 36.9715 35.8486C40.6457 35.848 44.1651 37.3231 46.7407 39.9433C49.3156 42.5635 50.7302 46.1087 50.6661 49.7815C50.6019 53.4551 49.0644 56.9482 46.3989 59.4766V59.4763Z" fill="#2E4480"/>
<path d="M28.8325 17.9775L27.3794 26.4475C27.2907 26.961 27.5022 27.4807 27.9241 27.787C28.3459 28.0932 28.9053 28.1336 29.3662 27.8909L36.973 23.8927L44.5798 27.8915V27.8909C45.0407 28.1336 45.6001 28.0933 46.0219 27.787C46.4437 27.4807 46.6552 26.9611 46.5666 26.4475L45.1134 17.9775L51.2677 11.9797C51.6413 11.616 51.7764 11.0713 51.615 10.5755C51.4542 10.0797 51.025 9.71837 50.5091 9.64319L42.0054 8.40768L38.201 0.701207C37.9442 0.266554 37.4772 0 36.9728 0C36.4684 0 36.0014 0.266539 35.7446 0.701207L31.9415 8.40705L23.4378 9.64256L23.4371 9.64317C22.9212 9.71775 22.4926 10.0791 22.3312 10.5748C22.1705 11.0713 22.305 11.6153 22.6785 11.9791L28.8325 17.9775ZM33.0484 11.0144C33.494 10.9496 33.8798 10.669 34.0785 10.2649L36.9731 4.40092L39.8678 10.2643C40.0665 10.6684 40.4522 10.949 40.8979 11.0138L47.3689 11.954L42.6854 16.5182H42.6861C42.3639 16.8331 42.2166 17.2861 42.2924 17.7305L43.3983 24.1746L37.6102 21.1321V21.1327C37.211 20.923 36.7348 20.923 36.3362 21.1327L30.5481 24.1752L31.654 17.7311V17.7305C31.7298 17.2861 31.5825 16.8331 31.2603 16.5182L26.5768 11.954L33.0484 11.0144Z" fill="#2E4480"/>
<path d="M17.9809 29.4492L22.5121 25.0329H22.5128C22.8863 24.6691 23.0208 24.1244 22.8594 23.6286C22.6986 23.1328 22.2694 22.7715 21.7535 22.6963L15.4915 21.786L12.6904 16.1122V16.1128C12.4343 15.6782 11.9672 15.4116 11.4623 15.4116C10.9579 15.4116 10.4908 15.6782 10.2347 16.1128L7.43471 21.786L1.17275 22.6957V22.6963C0.656774 22.7709 0.228224 23.1322 0.0668393 23.628C-0.0939352 24.1244 0.040551 24.6685 0.414085 25.0322L4.94529 29.4492L3.87607 35.6848C3.78804 36.1984 3.99895 36.718 4.42077 37.0243C4.84259 37.3306 5.40196 37.3709 5.86353 37.1282L11.4633 34.1841L17.0644 37.1282C17.5253 37.3709 18.0847 37.3306 18.5065 37.0243C18.9283 36.718 19.1393 36.1984 19.0512 35.6848L17.9809 29.4492ZM15.5539 27.9905V27.9911C15.2317 28.3054 15.0844 28.7584 15.1602 29.2028L15.8822 33.4137L12.1005 31.425C11.7013 31.2153 11.2244 31.2153 10.8259 31.425L7.04476 33.413L7.76675 29.2028C7.84256 28.7584 7.69523 28.3054 7.37306 27.9911L4.31329 25.0079L8.54197 24.3935H8.54136C8.98825 24.3281 9.374 24.0481 9.5733 23.6434L11.4629 19.8122L13.3544 23.6434C13.5537 24.0475 13.9388 24.3281 14.3851 24.3929L18.6138 25.0073L15.5539 27.9905Z" fill="#2E4480"/>
<path d="M73.8805 23.6283C73.7191 23.1331 73.2906 22.7718 72.7752 22.6967L66.5132 21.787L63.7139 16.1132H63.7133C63.4828 15.6455 63.0066 15.3496 62.4857 15.3496C61.9642 15.3496 61.488 15.6455 61.2575 16.1132L58.4565 21.7864L52.1945 22.696V22.6966C51.6785 22.7712 51.2494 23.1325 51.0886 23.6283C50.9272 24.1247 51.0623 24.6688 51.4358 25.0326L55.967 29.4495L54.8972 35.6852C54.8092 36.1993 55.0207 36.7184 55.4419 37.0246C55.8637 37.3309 56.4231 37.3713 56.8847 37.1286L62.4857 34.1844L68.0855 37.1286H68.0849C68.5465 37.3713 69.1052 37.3303 69.5271 37.024C69.9483 36.7177 70.1598 36.1987 70.0718 35.6852L69.0025 29.4495L73.5337 25.0332C73.9073 24.6688 74.0413 24.1247 73.8805 23.6283ZM66.5756 27.9908H66.575C66.2528 28.3057 66.1055 28.7587 66.1813 29.2025L66.9033 33.4127L63.1222 31.4247V31.4253C62.7236 31.215 62.2468 31.215 61.8482 31.4253L58.0665 33.414L58.7878 29.2031C58.8637 28.7593 58.7163 28.3063 58.3942 27.9914L55.3344 25.0087L59.5631 24.3943C60.0087 24.3295 60.3945 24.0489 60.5932 23.6448L62.4853 19.8123L64.3749 23.6435C64.5748 24.0476 64.9599 24.3276 65.4062 24.393L69.6349 25.0074L66.5756 27.9908Z" fill="#2E4480"/>
</svg>
