<svg width="82" height="69" viewBox="0 0 82 69" fill="none" xmlns="http://www.w3.org/2000/svg">
<path d="M27.2706 16.1256C27.2706 15.4243 27.8443 14.8543 28.5502 14.8543H43.7387C44.4446 14.8543 45.0183 15.4243 45.0183 16.1256C45.0183 16.827 44.4446 17.397 43.7387 17.397H28.5502C27.8443 17.397 27.2706 16.827 27.2706 16.1256ZM58.2824 21.2377H14.0149C13.309 21.2377 12.7353 21.8077 12.7353 22.5091C12.7353 23.2104 13.309 23.7804 14.0149 23.7804H58.2914C58.9973 23.7804 59.571 23.2104 59.571 22.5091C59.571 21.8077 58.9979 21.2377 58.2826 21.2377H58.2824ZM58.2824 27.6212H14.0149C13.309 27.6212 12.7353 28.1912 12.7353 28.8925C12.7353 29.5939 13.309 30.1639 14.0149 30.1639H58.2914C58.9973 30.1639 59.571 29.5939 59.571 28.8925C59.571 28.1912 58.9979 27.6212 58.2826 27.6212H58.2824ZM63.1101 55.1191C58.7414 55.1191 55.1851 51.5857 55.1851 47.2451C55.1851 42.9046 58.7414 39.38 63.1101 39.38C67.4787 39.38 71.0262 42.9134 71.0262 47.2451C71.0262 51.5851 67.4787 55.1191 63.1101 55.1191ZM63.1101 52.5671C66.0663 52.5671 68.467 50.1819 68.467 47.2447C68.467 44.3075 66.0663 41.9223 63.1101 41.9223C60.1538 41.9223 57.7443 44.3075 57.7443 47.2447C57.7443 50.1825 60.1532 52.5671 63.1101 52.5671ZM81.9426 60.9499C81.8105 61.3973 81.4309 61.739 80.9718 61.8267L75.8091 62.879L74.7763 67.9824C74.6792 68.4386 74.3441 68.8157 73.8938 68.947C73.7704 68.9819 73.6464 68.9999 73.523 68.9999C73.1879 68.9999 72.861 68.8686 72.6142 68.6228L64.4864 60.5561C63.9478 60.7577 63.3834 60.8716 62.8184 60.8716C62.395 60.8716 61.9798 60.8013 61.5739 60.6874L53.587 68.6229C53.3396 68.8687 53.0133 69 52.6781 69C52.5547 69 52.4308 68.9826 52.3074 68.9471C51.8571 68.8158 51.5132 68.4387 51.4249 67.9826L50.3921 62.8791L45.2293 61.8268C44.7703 61.7304 44.3907 61.3974 44.2585 60.95C44.1264 60.5026 44.2498 60.0116 44.5761 59.6874L51.7243 52.5852L51.7068 52.3394H3.10657C1.39414 52.3394 0 50.9542 0 49.2616V3.07778C0 1.37638 1.39421 0 3.10657 0H69.1814C70.8844 0 72.2792 1.38523 72.2792 3.07778V37.2307C73.4705 38.0285 74.2828 39.3266 74.3973 40.8699L74.512 42.4655C74.5471 43.0617 74.7681 43.5265 75.2003 43.9385L75.2623 43.9914C77.1864 45.7712 77.3448 48.7002 75.6331 50.6729L74.574 51.8827C74.433 52.0407 74.336 52.2069 74.2476 52.3737L81.617 59.6956C81.9603 60.0198 82.0837 60.5021 81.9428 60.9495L81.9426 60.9499ZM50.3035 49.7966C50.286 49.7705 50.2772 49.7618 50.2684 49.7438C50.1094 49.516 49.9684 49.2789 49.8538 49.0337C49.8099 48.946 49.783 48.8582 49.748 48.7705C49.6772 48.5863 49.607 48.4108 49.5538 48.2267C49.5275 48.1215 49.5099 48.0163 49.483 47.9111C49.4479 47.7357 49.421 47.5602 49.4035 47.3853C49.3947 47.2714 49.3947 47.1575 49.3859 47.043V46.6659H8.21603C6.83936 46.6659 5.7182 45.5526 5.7182 44.1842V8.14657C5.7182 6.77877 6.83872 5.66483 8.21603 5.66483H64.0804C65.4571 5.66483 66.5782 6.77813 66.5782 8.14657V34.8115L67.7695 35.8463C68.2286 36.2496 68.7403 36.425 69.3491 36.3989C69.4725 36.3902 69.5965 36.3902 69.7199 36.3989V3.07893C69.7199 2.78085 69.4819 2.54377 69.1813 2.54377L3.10642 2.54436C2.81518 2.54436 2.55903 2.79013 2.55903 3.07951V49.2723C2.55903 49.5616 2.8064 49.8074 3.10642 49.8074L50.3038 49.8069L50.3035 49.7966ZM62.0678 33.8031C62.1912 33.7682 62.3151 33.7328 62.4386 33.7153C62.6152 33.6805 62.8006 33.6537 62.9859 33.6363C63.1093 33.6276 63.224 33.6189 63.348 33.6189C63.5158 33.6189 63.6831 33.6276 63.8509 33.645C63.9041 33.6537 63.9655 33.645 64.0187 33.6537L64.0182 8.21603H8.28704V44.1138H50.3388C50.4183 44.0086 50.4978 43.9122 50.5768 43.8157L51.6271 42.606C52.0242 42.1499 52.2008 41.6501 52.1833 41.0279C52.0862 38.3888 54.0541 36.1965 56.6753 36.0122L58.2906 35.8983C58.8994 35.8547 59.376 35.6264 59.7907 35.1796L59.8966 35.0744C60.0907 34.8728 60.3024 34.6973 60.5229 34.5392C60.5849 34.4957 60.6375 34.4515 60.6995 34.4166C60.9025 34.2853 61.1142 34.1621 61.3352 34.057C61.4235 34.0134 61.5031 33.9866 61.5914 33.9518C61.7417 33.9076 61.9002 33.8547 62.068 33.8025L62.0678 33.8031ZM59.2882 59.3717L58.4495 58.6529C57.9817 58.2497 57.47 58.0742 56.8699 58.1003C56.5787 58.109 56.2874 58.0916 56.005 58.0568C55.9079 58.048 55.8108 58.0219 55.7137 58.0039C55.5283 57.969 55.3517 57.9249 55.1751 57.8638C55.078 57.829 54.9722 57.8022 54.8839 57.7674C54.6458 57.6796 54.416 57.5745 54.2043 57.4432C54.116 57.3903 54.0277 57.3293 53.9481 57.2677C53.816 57.1799 53.6832 57.0835 53.5598 56.9783C53.4627 56.8993 53.3744 56.8203 53.2861 56.7325C53.1715 56.6274 53.0744 56.5135 52.9773 56.3996C52.9066 56.3119 52.827 56.2328 52.7569 56.1451C52.6159 55.9609 52.4919 55.768 52.3861 55.5577L48.0971 59.8104L51.7598 60.5559C52.2628 60.6611 52.6599 61.0469 52.7569 61.5466L53.4897 65.1504L59.2882 59.3717ZM64.1328 57.9161C64.1591 57.8987 64.186 57.8813 64.2123 57.8632C64.3182 57.7842 64.4153 57.7052 64.5036 57.6087C64.5123 57.6 64.5211 57.5913 64.5299 57.5826C65.3861 56.6529 66.4715 56.1358 67.7423 56.0481L69.3483 55.9342C70.584 55.8465 71.5103 54.8116 71.4664 53.5844C71.4577 53.2776 71.4752 52.9795 71.5103 52.6902C71.5103 52.664 71.5191 52.6373 71.5191 52.6111C71.5278 52.5763 71.5278 52.5408 71.5278 52.506C71.5366 52.4357 71.5717 52.3659 71.5898 52.3043C71.7577 51.5327 72.1016 50.8314 72.6489 50.2085L73.6993 49.0074C74.4935 48.0958 74.432 46.7274 73.549 45.8861L73.487 45.8332C72.5513 44.9738 72.0395 43.8954 71.9512 42.6415L71.8366 41.0546C71.7746 40.1691 71.219 39.4497 70.4424 39.1255C70.319 39.0726 70.195 39.0377 70.0716 39.0116C70.0365 39.0029 70.0008 38.9941 69.9657 38.9854C69.8067 38.9593 69.6394 38.9418 69.4716 38.9506C68.1657 39.0034 67.0357 38.5996 66.0825 37.7757L64.8737 36.7321C64.7766 36.6444 64.6707 36.5741 64.5561 36.5131C64.4853 36.4695 64.4152 36.434 64.3356 36.3992C64.2824 36.373 64.2385 36.3556 64.1853 36.3289C64.1058 36.294 64.0175 36.276 63.9292 36.2498C63.8853 36.2411 63.8409 36.2237 63.797 36.215C63.7087 36.1975 63.6116 36.1888 63.5233 36.1801C63.4795 36.1801 63.4438 36.1801 63.3999 36.1714C63.3028 36.1714 63.2058 36.1714 63.1175 36.1801C63.0824 36.1801 63.0467 36.1888 63.0116 36.1975C62.9145 36.215 62.8262 36.2324 62.7291 36.2591C62.6853 36.2678 62.6496 36.2853 62.6145 36.3027C62.5262 36.3289 62.4467 36.3643 62.3584 36.4079C62.3233 36.4253 62.2964 36.4427 62.2701 36.4608C62.2525 36.4695 62.235 36.4782 62.2168 36.4956C62.1548 36.5305 62.0847 36.5746 62.0227 36.6182C61.9081 36.6972 61.8022 36.7937 61.7051 36.8989L61.5993 37.004C60.7519 37.8808 59.7021 38.3718 58.4663 38.4596L56.8511 38.5735C55.6423 38.6612 54.689 39.7135 54.7329 40.9233C54.7417 41.2475 54.7241 41.5636 54.6797 41.8704C54.6709 41.9407 54.6446 42.0104 54.6265 42.0807C54.5826 42.3085 54.5382 42.5369 54.4674 42.7472C54.2732 43.3085 53.9645 43.8256 53.5586 44.2993L52.4995 45.509C52.3761 45.6491 52.279 45.7984 52.2083 45.9384C52.1907 45.9733 52.1732 46.0174 52.155 46.0523C52.1199 46.1226 52.0843 46.1836 52.058 46.2539C52.0316 46.333 52.0229 46.4033 52.0047 46.4817C51.9872 46.5433 51.9696 46.6043 51.9609 46.6659C51.9521 46.7536 51.9521 46.8414 51.9433 46.9204C51.9433 46.9733 51.9346 47.0256 51.9346 47.0784C51.9346 47.1662 51.9521 47.2539 51.9696 47.3416C51.9784 47.3945 51.9784 47.4468 51.9872 47.491C52.0047 47.5787 52.0404 47.6665 52.0755 47.7542C52.093 47.7978 52.1018 47.8419 52.1194 47.8855C52.1544 47.9645 52.2077 48.0436 52.2515 48.122C52.2778 48.1656 52.2954 48.2184 52.3311 48.262C52.3749 48.3323 52.4369 48.3846 52.4901 48.4462C52.534 48.4991 52.5697 48.5514 52.6223 48.5956L52.6486 48.613L52.6925 48.6478L52.7013 48.6566C53.637 49.5159 54.1487 50.5943 54.237 51.8483L54.3166 52.9709V52.9796L54.3429 53.3567L54.3516 53.4445C54.4312 54.5229 55.2429 55.3736 56.2669 55.5223C56.4172 55.5485 56.567 55.5572 56.7173 55.5485H56.9377C57.0787 55.5485 57.2202 55.5746 57.3611 55.5834C57.4845 55.5921 57.6173 55.5921 57.7319 55.6182C57.9173 55.6444 58.1027 55.6972 58.2793 55.7495C58.3852 55.7757 58.491 55.7931 58.5881 55.8286C58.7823 55.8989 58.9676 55.9953 59.1442 56.083C59.2238 56.1266 59.3033 56.1534 59.3823 56.1969C59.6384 56.3463 59.8764 56.5212 60.115 56.7228L61.3326 57.7664C61.4736 57.8803 61.6063 57.968 61.7473 58.047C62.5005 58.4508 63.4269 58.3986 64.1328 57.9163L64.1328 57.9161ZM78.1299 59.8097L73.6998 55.4082C73.6115 55.6447 73.4969 55.873 73.3647 56.0921C73.3296 56.1537 73.2852 56.2147 73.2413 56.2763C73.1267 56.4431 73.0121 56.6092 72.8793 56.7673C72.8261 56.8289 72.7735 56.8986 72.7115 56.9602C72.5524 57.127 72.3851 57.2844 72.1997 57.4338C72.1734 57.4599 72.1465 57.4866 72.1114 57.5128C71.8997 57.6796 71.6611 57.8196 71.4231 57.9422C71.3523 57.9771 71.2821 58.0038 71.2114 58.0386C71.0172 58.1264 70.8231 58.1967 70.6201 58.2577C70.5406 58.2839 70.4611 58.3106 70.3821 58.328C70.1084 58.3983 69.826 58.4506 69.5259 58.468L67.9199 58.5819C67.779 58.5907 67.6462 58.6168 67.5141 58.6435C67.4702 58.6522 67.4345 58.6697 67.3995 58.6784C67.3111 58.7045 67.2316 58.7313 67.1433 58.7661C67.0995 58.7836 67.0638 58.8097 67.0199 58.8277C66.9492 58.8626 66.8696 58.9067 66.7994 58.959C66.7643 58.9852 66.7199 59.0119 66.6848 59.0381C66.6673 59.0555 66.6497 59.0729 66.6316 59.0909L72.7377 65.1583L73.4705 61.5545C73.5763 61.0548 73.9646 60.6603 74.4676 60.5638L78.1299 59.8097ZM47.7349 34.0046H24.5501C23.8443 34.0046 23.2705 34.5746 23.2705 35.2759C23.2705 35.9773 23.8442 36.5473 24.5501 36.5473H47.7349C48.4408 36.5473 49.0145 35.9773 49.0145 35.2759C49.0145 34.5746 48.4408 34.0046 47.7349 34.0046Z" fill="#2E4480"/>
</svg>
