<svg width="18" height="18" viewBox="0 0 18 18" fill="none" xmlns="http://www.w3.org/2000/svg">
<path d="M9.20222 0.371094C8.49433 0.371094 7.92057 0.944855 7.92057 1.65274V7.74113H1.83219C1.1243 7.74113 0.550537 8.31489 0.550537 9.02278C0.550537 9.73067 1.1243 10.3044 1.83219 10.3044H7.92057V16.3928C7.92057 17.1007 8.49433 17.6745 9.20222 17.6745C9.91011 17.6745 10.4839 17.1007 10.4839 16.3928V10.3044H16.5723C17.2801 10.3044 17.8539 9.73067 17.8539 9.02278C17.8539 8.31489 17.2801 7.74113 16.5723 7.74113H10.4839V1.65274C10.4839 0.944855 9.91011 0.371094 9.20222 0.371094Z" fill="#C68E00"/>
</svg>
